# xmcd CD database file
#
# Track frame offsets:
#	150
#	11831
#	36675
#	54734
#	74638
#	92165
#	103361
#	118685
#	138044
#	155093
#	172305
#	186464
#	211763
#
# Disc length: 3200 seconds
#
# Revision: 4
# Processed by: cddbd v1.4PL0 Copyright (c) Steve Scherf et al.
# Submitted via: CDex 1.50beta9
#
DISCID=d00c7e0d
DTITLE=Ben Harper - Welcome to the Cruel World
DYEAR=1993
DGENRE=Blues
TTITLE0=The Three Of Us
TTITLE1=Whipping Boy
TTITLE2=Breakin' Down
TTITLE3=Don't Take That Attitude To Your Grave
TTITLE4=Waiting On An Angel
TTITLE5=Mama's Got A Girlfriend Now
TTITLE6=Forever
TTITLE7=Like A King
TTITLE8=Pleasure And Pain
TTITLE9=Walk Away
TTITLE10=How Many Miles Must We March
TTITLE11=Welcome To The Cruel World
TTITLE12=I'll Rise
EXTD=YEAR: 1993
EXTT0=
EXTT1=
EXTT2=
EXTT3=
EXTT4=
EXTT5=
EXTT6=
EXTT7=
EXTT8=
EXTT9=
EXTT10=
EXTT11=
EXTT12=
PLAYORDER=
